<?xml version="1.0" encoding="UTF-8"?>
<svg width="44px" height="22px" viewBox="0 0 44 22" version="1.1" xmlns="http://www.w3.org/2000/svg" xmlns:xlink="http://www.w3.org/1999/xlink">
    <!-- Generator: Sketch 41.2 (35397) - http://www.bohemiancoding.com/sketch -->
    <title>clarin-read-more-icon</title>
    <desc>Created with Sketch.</desc>
    <defs></defs>
    <g id="a" stroke="none" stroke-width="1" fill="none" fill-rule="evenodd">
        <g id="clarin-read-more-icon" fill="#747E85">
            <g id="arrow-right" transform="translate(1.000000, 1.000000)">
                <path d="M15.98,10.081 L15.98,10.108 C15.9735884,10.1963277 15.9568063,10.2835943 15.93,10.368 C15.91,10.403 15.89,10.432 15.87,10.468 C15.8355999,10.5379197 15.7918673,10.6028458 15.74,10.661 C15.7062034,10.6922782 15.669352,10.7200843 15.63,10.744 L13.07,14.536 C12.7178716,15.0031609 12.0810766,15.1499189 11.56,14.884 C11.3127663,14.7882542 11.1224395,14.585345 11.0426949,14.3324962 C10.9629503,14.0796474 11.0024299,13.8042608 11.15,13.584 L12.89,11.001 L5,11.001 C4.44771525,11.001 4,10.5532847 4,10.001 C4,9.44871525 4.44771525,9.001 5,9.001 L12.89,9.001 L11.15,6.419 C11.0028191,6.19864007 10.9635617,5.92340498 11.043266,5.67068389 C11.1229704,5.41796281 11.3130282,5.21505021 11.56,5.119 C12.0812345,4.85436756 12.7171666,5.00092673 13.07,5.467 L15.61,9.229 C15.6263682,9.24180706 15.6399747,9.25779473 15.65,9.276 C15.736182,9.34900775 15.8104127,9.43504786 15.87,9.531 L15.87,9.531 C15.935523,9.64530073 15.9732068,9.77342581 15.98,9.905 L15.98,9.921 C15.987791,9.93012331 15.9914162,9.94208663 15.99,9.954 C15.99,9.97 16,9.984 16,10 C16,10.016 15.99,10.031 15.99,10.046 C15.9913912,10.0585271 15.9877993,10.0710988 15.98,10.081 L15.98,10.081 Z" id="arrow-right-path"></path>
            </g>
        </g>
    </g>
</svg>