<?xml version="1.0" encoding="UTF-8"?>
<svg width="336px" height="56px" viewBox="0 0 336 56" version="1.1" xmlns="http://www.w3.org/2000/svg" xmlns:xlink="http://www.w3.org/1999/xlink">
    <!-- Generator: Sketch 41.2 (35397) - http://www.bohemiancoding.com/sketch -->
    <title>clarin-icon-sprites</title>
    <desc>Created with Sketch.</desc>
    <defs></defs>
    <g id="a" stroke="none" stroke-width="1" fill="none" fill-rule="evenodd">
        <g id="clarin-icon-sprites" fill="#4C5359">
            <g id="Group-2">
                <g id="calendar" transform="translate(16.000000, 15.000000)">
                    <path d="M22.9166667,25 L2.08333333,25 C0.932740105,25 0,24.0672599 0,22.9166667 L0,4.16666667 C0,3.01607344 0.932740105,2.08333333 2.08333333,2.08333333 L4.16666667,2.08333333 L4.16666667,4.16666667 L2.08333333,4.16666667 L2.08333333,22.9166667 L22.9166667,22.9166667 L22.9166667,4.16666667 L20.8333333,4.16666667 L20.8333333,2.08333333 L22.9166667,2.08333333 C24.0672599,2.08333333 25,3.01607344 25,4.16666667 L25,22.9166667 C25,24.0672599 24.0672599,25 22.9166667,25 L22.9166667,25 Z M17.7083333,17.7083333 L19.7916667,17.7083333 C20.3669633,17.7083333 20.8333333,18.1747034 20.8333333,18.75 C20.8333333,19.3252966 20.3669633,19.7916667 19.7916667,19.7916667 L17.7083333,19.7916667 C17.1330367,19.7916667 16.6666667,19.3252966 16.6666667,18.75 C16.6666667,18.1747034 17.1330367,17.7083333 17.7083333,17.7083333 L17.7083333,17.7083333 Z M17.7083333,13.5416667 L19.7916667,13.5416667 C20.3669633,13.5416667 20.8333333,14.0080367 20.8333333,14.5833333 C20.8333333,15.1586299 20.3669633,15.625 19.7916667,15.625 L17.7083333,15.625 C17.1330367,15.625 16.6666667,15.1586299 16.6666667,14.5833333 C16.6666667,14.0080367 17.1330367,13.5416667 17.7083333,13.5416667 L17.7083333,13.5416667 Z M19.7916667,11.4583333 L17.7083333,11.4583333 C17.1330367,11.4583333 16.6666667,10.9919633 16.6666667,10.4166667 C16.6666667,9.84137005 17.1330367,9.375 17.7083333,9.375 L19.7916667,9.375 C20.3669633,9.375 20.8333333,9.84137005 20.8333333,10.4166667 C20.8333333,10.9919633 20.3669633,11.4583333 19.7916667,11.4583333 L19.7916667,11.4583333 Z M18.75,6.25 C18.1747034,6.25 17.7083333,5.78362995 17.7083333,5.20833333 L17.7083333,1.04166667 C17.7083333,0.466370052 18.1747034,0 18.75,0 C19.3252966,0 19.7916667,0.466370052 19.7916667,1.04166667 L19.7916667,5.20833333 C19.7916667,5.78362995 19.3252966,6.25 18.75,6.25 L18.75,6.25 Z M14.5833333,2.08333333 L16.6666667,2.08333333 L16.6666667,4.16666667 L14.5833333,4.16666667 L14.5833333,2.08333333 L14.5833333,2.08333333 Z M11.4583333,17.7083333 L13.5416667,17.7083333 C14.1169633,17.7083333 14.5833333,18.1747034 14.5833333,18.75 C14.5833333,19.3252966 14.1169633,19.7916667 13.5416667,19.7916667 L11.4583333,19.7916667 C10.8830367,19.7916667 10.4166667,19.3252966 10.4166667,18.75 C10.4166667,18.1747034 10.8830367,17.7083333 11.4583333,17.7083333 L11.4583333,17.7083333 Z M11.4583333,13.5416667 L13.5416667,13.5416667 C14.1169633,13.5416667 14.5833333,14.0080367 14.5833333,14.5833333 C14.5833333,15.1586299 14.1169633,15.625 13.5416667,15.625 L11.4583333,15.625 C10.8830367,15.625 10.4166667,15.1586299 10.4166667,14.5833333 C10.4166667,14.0080367 10.8830367,13.5416667 11.4583333,13.5416667 L11.4583333,13.5416667 Z M13.5416667,11.4583333 L11.4583333,11.4583333 C10.8830367,11.4583333 10.4166667,10.9919633 10.4166667,10.4166667 C10.4166667,9.84137005 10.8830367,9.375 11.4583333,9.375 L13.5416667,9.375 C14.1169633,9.375 14.5833333,9.84137005 14.5833333,10.4166667 C14.5833333,10.9919633 14.1169633,11.4583333 13.5416667,11.4583333 L13.5416667,11.4583333 Z M12.5,6.25 C11.9247034,6.25 11.4583333,5.78362995 11.4583333,5.20833333 L11.4583333,1.04166667 C11.4583333,0.466370052 11.9247034,0 12.5,0 C13.0752966,0 13.5416667,0.466370052 13.5416667,1.04166667 L13.5416667,5.20833333 C13.5416667,5.78362995 13.0752966,6.25 12.5,6.25 L12.5,6.25 Z M8.33333333,2.08333333 L10.4166667,2.08333333 L10.4166667,4.16666667 L8.33333333,4.16666667 L8.33333333,2.08333333 L8.33333333,2.08333333 Z M5.20833333,17.7083333 L7.29166667,17.7083333 C7.86696328,17.7083333 8.33333333,18.1747034 8.33333333,18.75 C8.33333333,19.3252966 7.86696328,19.7916667 7.29166667,19.7916667 L5.20833333,19.7916667 C4.63303672,19.7916667 4.16666667,19.3252966 4.16666667,18.75 C4.16666667,18.1747034 4.63303672,17.7083333 5.20833333,17.7083333 L5.20833333,17.7083333 Z M5.20833333,13.5416667 L7.29166667,13.5416667 C7.86696328,13.5416667 8.33333333,14.0080367 8.33333333,14.5833333 C8.33333333,15.1586299 7.86696328,15.625 7.29166667,15.625 L5.20833333,15.625 C4.63303672,15.625 4.16666667,15.1586299 4.16666667,14.5833333 C4.16666667,14.0080367 4.63303672,13.5416667 5.20833333,13.5416667 L5.20833333,13.5416667 Z M7.29166667,11.4583333 L5.20833333,11.4583333 C4.63303672,11.4583333 4.16666667,10.9919633 4.16666667,10.4166667 C4.16666667,9.84137005 4.63303672,9.375 5.20833333,9.375 L7.29166667,9.375 C7.86696328,9.375 8.33333333,9.84137005 8.33333333,10.4166667 C8.33333333,10.9919633 7.86696328,11.4583333 7.29166667,11.4583333 L7.29166667,11.4583333 Z M6.25,6.25 C5.67470339,6.25 5.20833333,5.78362995 5.20833333,5.20833333 L5.20833333,1.04166667 C5.20833333,0.466370052 5.67470339,0 6.25,0 C6.82529661,0 7.29166667,0.466370052 7.29166667,1.04166667 L7.29166667,5.20833333 C7.29166667,5.78362995 6.82529661,6.25 6.25,6.25 L6.25,6.25 Z"></path>
                </g>
            </g>
            <g id="Group-2" transform="translate(56.000000, 0.000000)">
                <g id="file" transform="translate(18.000000, 12.000000)">
                    <path d="M22,10 L22,26 C22,27.1045695 21.1045695,28 20,28 L2,28 C0.8954305,28 0,27.1045695 0,26 L0,3 C0,1.8954305 0.8954305,1 2,1 L14.94,1 C15.2457952,0.968815713 15.5497035,1.07463438 15.77,1.289 L21.68,7.2 C21.8889448,7.41146482 21.9949036,7.70376512 21.97,8 L22,8 L22,10 L14,10 C13.4477153,10 13,9.55228475 13,9 L13,3 L2,3 L2,26 L20,26 L20,10 L22,10 L22,10 Z M15,3.478 L15,8 L19.52,8 L15,3.478 Z"></path>
                </g>
            </g>
            <g id="Group" transform="translate(112.000000, 0.000000)">
                <g id="share1" transform="translate(13.000000, 15.000000)">
                    <path d="M21,8 C19.7439687,7.99905682 18.561854,7.4061466 17.81,6.4 L8.97,11.692 C8.98,11.797 9,11.892 9,12.004 C9,12.132 8.97,12.253 8.96,12.378 L17.76,17.678 C18.9128252,16.0895445 21.0504178,15.5766947 22.7984673,16.4691742 C24.5465169,17.3616537 25.384731,19.3938235 24.7742014,21.2591521 C24.1636719,23.1244806 22.2861176,24.2677684 20.3486641,23.9539679 C18.4112106,23.6401673 16.9905247,21.9626785 17,20 C17,19.851 17.03,19.709 17.04,19.564 L8.22,14.348 C7.2077356,15.7439236 5.4148526,16.3340484 3.7713755,15.8122582 C2.1278984,15.290468 1.00377206,13.7742171 0.982115982,12.0500324 C0.960459903,10.3258476 2.04614885,8.78184104 3.67600199,8.21893718 C5.30585513,7.65603331 7.11299435,8.20094117 8.16,9.571 L17.04,4.382 C17.03,4.255 17,4.131 17,4 C17,2.38215102 17.9745687,0.92360587 19.4692663,0.30448187 C20.9639638,-0.31464213 22.6844351,0.0275808911 23.8284271,1.17157288 C24.9724191,2.31556486 25.3146421,4.03603617 24.6955181,5.53073373 C24.0763941,7.02543129 22.617849,8 21,8 L21,8 Z M21,22 C22.1045695,22 23,21.1045695 23,20 C23,18.8954305 22.1045695,18 21,18 C19.8954305,18 19,18.8954305 19,20 C19,21.1045695 19.8954305,22 21,22 L21,22 Z M5,10 C3.8954305,10 3,10.8954305 3,12 C3,13.1045695 3.8954305,14 5,14 C6.1045695,14 7,13.1045695 7,12 C7,10.8954305 6.1045695,10 5,10 L5,10 Z M21,2 C19.8954305,2 19,2.8954305 19,4 C19,5.1045695 19.8954305,6 21,6 C22.1045695,6 23,5.1045695 23,4 C23,2.8954305 22.1045695,2 21,2 L21,2 Z"></path>
                </g>
            </g>
            <g id="Group-3" transform="translate(168.000000, 0.000000)">
                <g id="write" transform="translate(16.000000, 15.000000)">
                    <path d="M22,25 L2,25 C0.8954305,25 0,24.1045695 0,23 L0,3 C0,1.8954305 0.8954305,1 2,1 L14.81,1 L12.81,3 L2,3 L2,23 L22,23 L22,12.193 L24,10.193 L24,23 C24,24.1045695 23.1045695,25 22,25 L22,25 Z M10,20 L5.01,20.014 L5,15 L18.55,1.561 C18.9181602,1.19142581 19.418342,0.983681913 19.94,0.983681913 C20.461658,0.983681913 20.9618398,1.19142581 21.33,1.561 L23.41,3.651 C23.7798132,4.02065796 23.9875851,4.52211492 23.9875851,5.045 C23.9875851,5.56788508 23.7798132,6.06934204 23.41,6.439 L10,20 Z M7,18 L10,18 L7,15 L7,18 L7,18 Z M19.94,2.955 L9,14 L11,16 L22.02,5.045 L19.94,2.955 Z"></path>
                </g>
            </g>
            <g id="info" transform="translate(238.000000, 14.000000)">
                <path d="M14,28 C6.2680135,28 -6.57252031e-14,21.7319865 -6.57252031e-14,14 C-6.57252031e-14,6.2680135 6.2680135,0 14,0 C21.7319865,0 28,6.2680135 28,14 C28,21.7319865 21.7319865,28 14,28 L14,28 Z M14,2.33333333 C7.55667792,2.33333333 2.33333333,7.55667792 2.33333333,14 C2.33333333,20.4433221 7.55667792,25.6666667 14,25.6666667 C20.4433221,25.6666667 25.6666667,20.4433221 25.6666667,14 C25.6666667,10.9058076 24.4375035,7.9383453 22.2495791,5.75042089 C20.0616547,3.56249647 17.0941924,2.33333333 14,2.33333333 L14,2.33333333 Z M14,21 C13.3588594,20.9955119 12.8414843,20.4744897 12.8415,19.8333333 L12.8415,12.845 C12.8280889,12.4225514 13.0458065,12.0263248 13.409586,11.8111339 C13.7733655,11.595943 14.2254678,11.595943 14.5892473,11.8111339 C14.9530268,12.0263248 15.1707444,12.4225514 15.1573333,12.845 L15.1573333,19.8333333 C15.1591954,20.1417031 15.0381594,20.4381157 14.8209825,20.657044 C14.6038057,20.8759723 14.3083748,20.9993851 14,21 L14,21 Z M14,9.33333333 C13.5317965,9.33380531 13.1094328,9.05212954 12.929932,8.61970128 C12.7504311,8.18727303 12.8491594,7.68929209 13.1800625,7.35805513 C13.5109656,7.02681817 14.0088467,6.92758762 14.4414557,7.10665226 C14.8740648,7.28571689 15.1561664,7.70779624 15.1561667,8.176 C15.1548855,8.81419102 14.6381894,9.33140849 14,9.33333333 L14,9.33333333 Z M15.1573333,8.16666667 L15.1573333,8.17833333 C15.1572202,8.17639053 15.1572202,8.1744428 15.1573333,8.1725 C15.1574465,8.1705572 15.1573333,8.16666667 15.1573333,8.16666667 L15.1573333,8.16666667 Z"></path>
            </g>
            <g id="Group-2" transform="translate(280.000000, 0.000000)">
                <g id="message" transform="translate(15.000000, 15.000000)">
                    <path d="M25,25 L18.6191667,23.40425 C13.1907458,26.441255 6.35400562,25.0089322 2.60109804,20.0484043 C-1.15180954,15.0878764 -0.670811985,8.11928928 3.72804621,3.7214263 C8.12690441,-0.676436685 15.0956002,-1.15585745 20.0552788,2.59817245 C25.0149574,6.35220236 26.4457332,13.1892665 23.4075,18.617 L25,25 Z M19.8108333,5.23458333 C15.9189118,1.3339712 9.64767179,1.18347681 5.57312771,4.89291329 C1.49858363,8.60234976 1.06140373,14.8601428 4.58059056,19.10009 C8.09977739,23.3400372 14.3310246,24.0629875 18.7275,20.7414167 L21.75,21.75 L20.7425,18.7253333 C23.8410755,14.625726 23.4435407,8.86933054 19.8108333,5.23458333 L19.8108333,5.23458333 Z M17.9583333,14.1666667 C17.0608706,14.1666667 16.3333333,13.4391294 16.3333333,12.5416667 C16.3333333,11.6442039 17.0608706,10.9166667 17.9583333,10.9166667 C18.8557961,10.9166667 19.5833333,11.6442039 19.5833333,12.5416667 C19.5833333,13.4391294 18.8557961,14.1666667 17.9583333,14.1666667 L17.9583333,14.1666667 Z M12.5416667,14.1666667 C11.6442039,14.1666667 10.9166667,13.4391294 10.9166667,12.5416667 C10.9166667,11.6442039 11.6442039,10.9166667 12.5416667,10.9166667 C13.4391294,10.9166667 14.1666667,11.6442039 14.1666667,12.5416667 C14.1666667,13.4391294 13.4391294,14.1666667 12.5416667,14.1666667 L12.5416667,14.1666667 Z M7.125,14.1666667 C6.22753728,14.1666667 5.5,13.4391294 5.5,12.5416667 C5.5,11.6442039 6.22753728,10.9166667 7.125,10.9166667 C8.02246272,10.9166667 8.75,11.6442039 8.75,12.5416667 C8.75,13.4391294 8.02246272,14.1666667 7.125,14.1666667 L7.125,14.1666667 Z"></path>
                </g>
            </g>
        </g>
    </g>
</svg>