<?xml version="1.0" encoding="UTF-8"?>
<svg width="22px" height="22px" viewBox="0 0 22 22" version="1.1" xmlns="http://www.w3.org/2000/svg" xmlns:xlink="http://www.w3.org/1999/xlink">
    <!-- Generator: Sketch 41.2 (35397) - http://www.bohemiancoding.com/sketch -->
    <title>clarin-flag-eng</title>
    <desc>Created with Sketch.</desc>
    <defs></defs>
    <g id="a" stroke="none" stroke-width="1" fill="none" fill-rule="evenodd">
        <g id="clarin-flag-eng">
            <g id="Page-1" transform="translate(-6.000000, 0.000000)">
                <polygon id="Fill-1" fill="#194092" points="0 23 34.978125 23 34.978125 0 0 0"></polygon>
                <polygon id="Fill-2" fill="#FEFEFE" points="30.6017578 0 21.4891797 5.98374206 21.4891797 0 13.4638802 0 13.4638802 6.22962302 3.8314974 0 0 0 0 3.11001984 6.90821615 7.59949206 0 7.59949206 0 15.5675317 6.85216146 15.5675317 0 20.0890397 0 23 4.53332031 23 13.4638802 17.1142817 13.4638802 23 21.4891797 23 21.4891797 17.0111468 30.7156901 23 34.978125 23 34.978125 20.121623 27.9576172 15.5675317 34.978125 15.5675317 34.978125 7.59949206 27.9928906 7.59949206 34.978125 2.99912698 34.978125 0"></polygon>
                <polygon id="Fill-3" fill="#E30613" points="0 0 0 2.00565476 8.41239583 7.59949206 11.2598828 7.59949206"></polygon>
                <polygon id="Fill-4" fill="#E30613" points="23.7341836 15.56755 34.9781159 23.0000183 34.9781159 21.1342802 26.5815794 15.56755"></polygon>
                <polygon id="Fill-5" fill="#E30613" points="11.1478008 15.56755 2.73437499e-05 23.0000183 2.66996224 23.0000183 13.4639076 15.9324468 13.4639076 15.56755"></polygon>
                <polygon id="Fill-6" fill="#E30613" points="32.4278555 0 21.4891706 7.13036508 21.4891706 7.59949206 23.6459544 7.59949206 34.9781159 0.185916667 34.9781159 0"></polygon>
                <polygon id="Fill-7" fill="#E30613" points="15.1835742 0 15.1835742 9.29053968 4.55729169e-05 9.29053968 4.55729169e-05 13.8765754 15.1835742 13.8765754 15.1835742 23 19.7694857 23 19.7694857 13.8765754 34.9780794 13.8765754 34.9780794 9.29053968 19.7694857 9.29053968 19.7694857 0"></polygon>
            </g>
        </g>
    </g>
</svg>