<?xml version="1.0" encoding="UTF-8"?>
<svg width="20px" height="20px" viewBox="0 0 20 20" version="1.1" xmlns="http://www.w3.org/2000/svg" xmlns:xlink="http://www.w3.org/1999/xlink">
    <!-- Generator: Sketch 41.2 (35397) - http://www.bohemiancoding.com/sketch -->
    <title>search</title>
    <desc>Created with Sketch.</desc>
    <defs></defs>
    <g id="a" stroke="none" stroke-width="1" fill="none" fill-rule="evenodd">
        <g id="header" transform="translate(0.000000, -34.000000)" fill="#747E85">
            <g id="search">
                <path d="M13.3835188,46.1910169 C14.407955,44.9072856 15.0203198,43.2802355 15.0203198,41.5101599 C15.0203198,37.3624131 11.6579067,34 7.51015992,34 L7.51015992,34 C3.36241313,34 0,37.3624131 0,41.5101599 C0,45.6579067 3.36241313,49.0203198 7.51015992,49.0203198 C9.28026449,49.0203198 10.9073389,48.407935 12.19108,47.3834685 L18.6001627,53.7717477 C18.9321742,54.0830929 19.4513045,54.0749388 19.7733739,53.7533199 C20.0954433,53.4317009 20.1043239,52.9125825 19.7934437,52.5801356 L13.3835188,46.1910169 Z M7.51015992,35.6689244 C10.7361852,35.6689244 13.3513954,38.2841346 13.3513954,41.5101599 C13.3513954,44.7361852 10.7361852,47.3513954 7.51015992,47.3513954 C4.28413464,47.3513954 1.66892443,44.7361852 1.66892443,41.5101599 C1.66892443,38.2841346 4.28413464,35.6689244 7.51015992,35.6689244 L7.51015992,35.6689244 Z"></path>
            </g>
        </g>
    </g>
</svg>