<?xml version="1.0" encoding="UTF-8"?>
<svg width="401px" height="90px" viewBox="0 0 401 90" version="1.1" xmlns="http://www.w3.org/2000/svg" xmlns:xlink="http://www.w3.org/1999/xlink">
    <!-- Generator: Sketch 41.2 (35397) - http://www.bohemiancoding.com/sketch -->
    <title>clarin-brand</title>
    <desc>Created with Sketch.</desc>
    <defs>
        <linearGradient x1="50%" y1="103.059254%" x2="52.3021568%" y2="33.9829979%" id="linearGradient-1">
            <stop stop-color="#0074AA" stop-opacity="0" offset="0%"></stop>
            <stop stop-color="#004071" offset="100%"></stop>
        </linearGradient>
        <polygon id="path-2" points="0.0866295506 42.7342667 50.4629089 42.7342667 50.4629089 0.0879511037 0.0866295506 0.0879511037 0.0866295506 42.7342667"></polygon>
        <linearGradient x1="62.6958076%" y1="76.3696977%" x2="28.0232159%" y2="14.5684699%" id="linearGradient-4">
            <stop stop-color="#0074AA" stop-opacity="0" offset="0%"></stop>
            <stop stop-color="#004071" offset="100%"></stop>
        </linearGradient>
        <polygon id="path-5" points="0.142174049 0.0543431816 0.142174049 44.9520405 54.5215916 44.9520405 54.5215916 0.0543431816"></polygon>
        <linearGradient x1="56.8720207%" y1="22.1004683%" x2="74.2107701%" y2="53.4183876%" id="linearGradient-7">
            <stop stop-color="#0074AA" stop-opacity="0" offset="0%"></stop>
            <stop stop-color="#004071" offset="100%"></stop>
        </linearGradient>
    </defs>
    <g id="a" stroke="none" stroke-width="1" fill="none" fill-rule="evenodd">
        <g id="clarin-brand">
            <path d="M108.112,33.192 C108.112,32.76 108.256,32.424 109.456,32.328 L109.456,31.752 L99.568,31.752 L99.568,32.328 C100.768,32.424 100.912,32.76 100.912,33.192 L100.912,40.824 L88.432,40.824 L88.432,33.192 C88.432,32.76 88.576,32.424 89.776,32.328 L89.776,31.752 L79.888,31.752 L79.888,32.328 C81.088,32.424 81.232,32.76 81.232,33.192 L81.232,55.56 C81.232,55.992 81.088,56.328 79.888,56.424 L79.888,57 L89.776,57 L89.776,56.424 C88.576,56.328 88.432,55.992 88.432,55.56 L88.432,46.68 L100.912,46.68 L100.912,55.56 C100.912,55.992 100.768,56.328 99.568,56.424 L99.568,57 L109.456,57 L109.456,56.424 C108.256,56.328 108.112,55.992 108.112,55.56 L108.112,33.192 Z M138.064,46.056 C138.064,49.752 135.856,51.24 132.016,51.24 C128.176,51.24 125.968,49.752 125.968,46.056 L125.968,33.192 C125.968,32.76 126.112,32.424 127.312,32.328 L127.312,31.752 L117.424,31.752 L117.424,32.328 C118.624,32.424 118.768,32.76 118.768,33.192 L118.768,46.056 C118.768,54.504 124.672,57.288 132.016,57.288 C139.36,57.288 145.264,54.504 145.264,46.056 L145.264,33.192 C145.264,32.76 145.408,32.424 146.608,32.328 L146.608,31.752 L136.72,31.752 L136.72,32.328 C137.92,32.424 138.064,32.76 138.064,33.192 L138.064,46.056 Z M155.92,55.56 C155.92,55.992 155.776,56.328 154.576,56.424 L154.576,57 L163.696,57 L163.696,56.424 C162.496,56.328 162.352,55.992 162.352,55.56 L162.352,40.488 C175.024,54.648 176.224,55.272 176.224,55.896 C176.224,56.232 175.984,56.424 175.12,56.424 L175.12,57 L184.24,57 L184.24,56.424 C183.04,56.328 182.896,55.992 182.896,55.56 L182.896,33.192 C182.896,32.76 183.04,32.424 184.24,32.328 L184.24,31.752 L175.456,31.752 L175.456,32.328 C176.08,32.376 176.464,32.616 176.464,33.192 L176.464,46.008 C173.104,42.312 164.8,33.48 164.8,32.952 C164.8,32.664 165.04,32.376 166.144,32.328 L166.144,31.752 L154.576,31.752 L154.576,32.328 C155.776,32.424 155.92,32.76 155.92,33.192 L155.92,55.56 Z" id="HUN" fill="#98A5AE"></path>
            <path d="M224.68,33.144 L224.152,33 C223.96,33.24 223.72,33.384 223.432,33.384 C222.952,33.384 221.992,33 220.12,32.472 C218.2,31.944 215.464,31.464 211.624,31.464 C203.944,31.464 195.784,35.784 195.784,44.376 C195.784,52.968 203.944,57.288 211.624,57.288 C218.776,57.288 223.24,54.696 224.2,54.696 C224.536,54.696 224.728,54.744 224.872,55.08 L225.448,54.744 L220.504,47.208 L219.976,47.544 C220.072,47.784 220.264,47.976 220.264,48.264 C220.264,49.656 213.88,50.952 212.2,50.952 C208.312,50.952 203.272,49.272 203.272,44.376 C203.272,39.48 208.312,37.8 212.2,37.8 C216.28,37.8 219.976,39.048 219.976,40.008 C219.976,40.344 219.928,40.536 219.88,40.728 L220.36,41.064 L224.68,33.144 Z M244.088,33.192 C244.088,32.76 244.232,32.424 245.432,32.328 L245.432,31.752 L235.544,31.752 L235.544,32.328 C236.744,32.424 236.888,32.76 236.888,33.192 L236.888,55.56 C236.888,55.992 236.744,56.328 235.544,56.424 L235.544,57 L260.6,57 C261.128,57 261.32,57.24 261.464,58.248 L262.04,58.248 L262.04,49.8 L261.464,49.8 C261.32,50.904 261.128,51.144 260.6,51.144 L244.088,51.144 L244.088,33.192 Z M284.28,36.264 L288.936,47.688 L280.008,47.688 L284.28,36.264 Z M290.184,51.528 C290.376,52.152 291.816,55.656 291.816,55.848 C291.816,56.136 291.576,56.376 290.904,56.424 L290.904,57 L300.36,57 L300.36,56.424 C299.784,56.424 299.496,56.136 299.016,54.984 C296.04,47.688 290.136,33.336 290.136,32.952 C290.136,32.472 290.472,32.376 291,32.328 L291,31.752 L278.472,31.752 L278.472,32.328 C278.904,32.376 279.432,32.472 279.432,32.808 C279.432,33.096 271.32,54.216 270.888,55.32 C270.6,56.088 270.312,56.28 269.64,56.424 L269.64,57 L278.136,57 L278.136,56.424 C277.464,56.424 277.272,56.232 277.272,55.944 C277.272,55.656 277.56,55.032 278.808,51.528 L290.184,51.528 Z M318.76,47.496 L323.464,47.496 C324.088,48.504 329.176,55.128 329.176,55.56 C329.176,56.136 328.792,56.376 328.12,56.424 L328.12,57 L338.104,57 L338.104,56.424 C337.576,56.424 337.144,56.184 336.712,55.56 L331.048,47.592 C335.032,46.488 337.912,44.136 337.912,39.72 C337.912,34.248 334.888,31.752 327.784,31.752 L310.216,31.752 L310.216,32.328 C311.416,32.424 311.56,32.76 311.56,33.192 L311.56,55.56 C311.56,55.992 311.416,56.328 310.216,56.424 L310.216,57 L320.104,57 L320.104,56.424 C318.904,56.328 318.76,55.992 318.76,55.56 L318.76,47.496 Z M318.76,37.128 L326.824,37.128 C329.656,37.128 330.52,38.376 330.52,39.768 C330.52,41.16 329.656,42.408 326.824,42.408 L318.76,42.408 L318.76,37.128 Z M359.288,57 L359.288,56.424 C358.088,56.328 357.944,55.992 357.944,55.56 L357.944,33.192 C357.944,32.76 358.088,32.424 359.288,32.328 L359.288,31.752 L349.4,31.752 L349.4,32.328 C350.6,32.424 350.744,32.76 350.744,33.192 L350.744,55.56 C350.744,55.992 350.6,56.328 349.4,56.424 L349.4,57 L359.288,57 Z M372.888,55.56 C372.888,55.992 372.744,56.328 371.544,56.424 L371.544,57 L380.664,57 L380.664,56.424 C379.464,56.328 379.32,55.992 379.32,55.56 L379.32,40.488 C391.992,54.648 393.192,55.272 393.192,55.896 C393.192,56.232 392.952,56.424 392.088,56.424 L392.088,57 L401.208,57 L401.208,56.424 C400.008,56.328 399.864,55.992 399.864,55.56 L399.864,33.192 C399.864,32.76 400.008,32.424 401.208,32.328 L401.208,31.752 L392.424,31.752 L392.424,32.328 C393.048,32.376 393.432,32.616 393.432,33.192 L393.432,46.008 C390.072,42.312 381.768,33.48 381.768,32.952 C381.768,32.664 382.008,32.376 383.112,32.328 L383.112,31.752 L371.544,31.752 L371.544,32.328 C372.744,32.424 372.888,32.76 372.888,33.192 L372.888,55.56 Z" id="CLARIN" fill="#004874"></path>
            <g id="Page-1" transform="translate(0.000000, 14.000000)">
                <path d="M3.09821724,36.7499719 C3.09821724,34.2247806 5.15582596,32.1779101 7.69388725,32.1779101 C10.2321177,32.1779101 12.2897264,34.2247806 12.2897264,36.7499719 C12.2897264,39.2751633 10.2321177,41.3220337 7.69388725,41.3220337 C5.15582596,41.3220337 3.09821724,39.2751633 3.09821724,36.7499719" id="Fill-1" fill="#004071"></path>
                <path d="M3.71098451,36.7499719 C3.71098451,34.5616074 5.4942905,32.7874623 7.6939549,32.7874623 C9.89361929,32.7874623 11.6769253,34.5616074 11.6769253,36.7499719 C11.6769253,38.9383365 9.89361929,40.7124816 7.6939549,40.7124816 C5.4942905,40.7124816 3.71098451,38.9383365 3.71098451,36.7499719" id="Fill-3" fill="#004071"></path>
                <path d="M11.9395253,42.7300101 C11.9395253,40.2048187 13.9971341,38.1579483 16.5351953,38.1579483 C19.0734258,38.1579483 21.1310345,40.2048187 21.1310345,42.7300101 C21.1310345,45.2552014 19.0734258,47.3020719 16.5351953,47.3020719 C13.9971341,47.3020719 11.9395253,45.2552014 11.9395253,42.7300101" id="Fill-5" fill="#004071"></path>
                <path d="M12.5522757,42.7300101 C12.5522757,40.5416455 14.3355817,38.7675004 16.5352461,38.7675004 C18.7349105,38.7675004 20.5182165,40.5416455 20.5182165,42.7300101 C20.5182165,44.9183746 18.7349105,46.6925197 16.5352461,46.6925197 C14.3355817,46.6925197 12.5522757,44.9183746 12.5522757,42.7300101" id="Fill-7" fill="#004071"></path>
                <path d="M22.3965983,44.6464737 C22.3965983,42.1212823 24.454207,40.0744119 26.9922683,40.0744119 C29.5304987,40.0744119 31.5881074,42.1212823 31.5881074,44.6464737 C31.5881074,47.171665 29.5304987,49.2185355 26.9922683,49.2185355 C24.454207,49.2185355 22.3965983,47.171665 22.3965983,44.6464737" id="Fill-9" fill="#004071"></path>
                <path d="M23.0093656,44.6464737 C23.0093656,42.4581091 24.7926716,40.683964 26.992336,40.683964 C29.1920003,40.683964 30.9753063,42.4581091 30.9753063,44.6464737 C30.9753063,46.8348383 29.1920003,48.6089833 26.992336,48.6089833 C24.7926716,48.6089833 23.0093656,46.8348383 23.0093656,44.6464737" id="Fill-11" fill="#004071"></path>
                <path d="M32.9292652,42.7300101 C32.9292652,40.2048187 34.9868739,38.1579483 37.5249352,38.1579483 C40.0631656,38.1579483 42.1207743,40.2048187 42.1207743,42.7300101 C42.1207743,45.2552014 40.0631656,47.3020719 37.5249352,47.3020719 C34.9868739,47.3020719 32.9292652,45.2552014 32.9292652,42.7300101" id="Fill-13" fill="#004071"></path>
                <path d="M33.5420324,42.7300101 C33.5420324,40.5416455 35.3253384,38.7675004 37.5250028,38.7675004 C39.7246672,38.7675004 41.5079732,40.5416455 41.5079732,42.7300101 C41.5079732,44.9183746 39.7246672,46.6925197 37.5250028,46.6925197 C35.3253384,46.6925197 33.5420324,44.9183746 33.5420324,42.7300101" id="Fill-15" fill="#004071"></path>
                <path d="M41.6788459,36.7499719 C41.6788459,34.2247806 43.7364546,32.1779101 46.2745159,32.1779101 C48.8127463,32.1779101 50.870355,34.2247806 50.870355,36.7499719 C50.870355,39.2751633 48.8127463,41.3220337 46.2745159,41.3220337 C43.7364546,41.3220337 41.6788459,39.2751633 41.6788459,36.7499719" id="Fill-17" fill="#004071"></path>
                <path d="M42.2915962,36.7499719 C42.2915962,34.5616074 44.0749022,32.7874623 46.2745666,32.7874623 C48.474231,32.7874623 50.257537,34.5616074 50.257537,36.7499719 C50.257537,38.9383365 48.474231,40.7124816 46.2745666,40.7124816 C44.0749022,40.7124816 42.2915962,38.9383365 42.2915962,36.7499719" id="Fill-19" fill="#004071"></path>
                <path d="M47.5369849,27.9830876 C47.5369849,25.4578962 49.5945936,23.4110258 52.1326549,23.4110258 C54.6708853,23.4110258 56.7284941,25.4578962 56.7284941,27.9830876 C56.7284941,30.508279 54.6708853,32.5551494 52.1326549,32.5551494 C49.5945936,32.5551494 47.5369849,30.508279 47.5369849,27.9830876" id="Fill-21" fill="#004071"></path>
                <path d="M48.1497522,27.9830876 C48.1497522,25.794723 49.9330582,24.020578 52.1327226,24.020578 C54.332387,24.020578 56.115693,25.794723 56.115693,27.9830876 C56.115693,30.1714522 54.332387,31.9455973 52.1327226,31.9455973 C49.9330582,31.9455973 48.1497522,30.1714522 48.1497522,27.9830876" id="Fill-23" fill="#004071"></path>
                <path d="M49.5663516,17.6780725 C49.5663516,15.1528812 51.6239604,13.1060107 54.1620216,13.1060107 C56.700252,13.1060107 58.7578608,15.1528812 58.7578608,17.6780725 C58.7578608,20.2032639 56.700252,22.2501343 54.1620216,22.2501343 C51.6239604,22.2501343 49.5663516,20.2032639 49.5663516,17.6780725" id="Fill-25" fill="#004071"></path>
                <path d="M50.1791189,17.6780725 C50.1791189,15.4897079 51.9624249,13.7155629 54.1620893,13.7155629 C56.3617537,13.7155629 58.1450597,15.4897079 58.1450597,17.6780725 C58.1450597,19.8664371 56.3617537,21.6405822 54.1620893,21.6405822 C51.9624249,21.6405822 50.1791189,19.8664371 50.1791189,17.6780725" id="Fill-27" fill="#004071"></path>
                <path d="M0.491157477,55.6860639 C0.491157477,40.8537402 12.620344,28.786862 27.5292556,28.786862 C42.4379981,28.786862 54.5673538,40.8537402 54.5673538,55.6860639 L55.0586297,55.6860639 C55.0584606,40.5843797 42.7089186,28.2982781 27.5292556,28.2982781 C12.3495927,28.2982781 5.07341676e-05,40.5843797 5.07341676e-05,55.6860639 L0.491157477,55.6860639 Z" id="Fill-29" fill="url(#linearGradient-1)"></path>
                <g id="Group-33" transform="translate(16.065820, 14.246494)">
                    <mask id="mask-3" fill="white">
                        <use xlink:href="#path-2"></use>
                    </mask>
                    <g id="Clip-32"></g>
                    <path d="M5.15976631,42.4618946 C-3.15082857,30.147696 0.15788473,13.403098 12.5356687,5.13502687 C24.9132836,-3.13287601 41.7445128,0.159008486 50.0552768,12.4730388 L50.4630104,12.20065 C42.0013968,-0.337146445 24.8644097,-3.68875796 12.2618733,4.72938783 C-0.340663024,13.1475336 -3.70958087,30.1964871 4.75203272,42.7342835 L5.15976631,42.4618946 Z" id="Fill-31" fill="url(#linearGradient-4)" mask="url(#mask-3)"></path>
                </g>
                <g id="Group-36" transform="translate(0.000000, 0.113902)">
                    <mask id="mask-6" fill="white">
                        <use xlink:href="#path-5"></use>
                    </mask>
                    <g id="Clip-35"></g>
                    <path d="M47.6898977,0.277066104 C51.6442878,4.95545883 54.0304849,10.9873837 54.0304849,17.5642547 C54.0304849,32.3964101 41.9011292,44.4634566 26.9923867,44.4634566 C14.0959304,44.4634566 3.281097,35.4335715 0.596075735,23.3957996 L0.142174049,23.6185562 C2.91970061,35.8166657 13.9033097,44.9520405 26.9923867,44.9520405 C42.1720496,44.9520405 54.5215916,32.6659388 54.5215916,17.5642547 C54.5215916,10.9108322 52.1235566,4.80487943 48.1434612,0.0543095326 L47.6898977,0.277066104 Z" id="Fill-34" fill="url(#linearGradient-7)" mask="url(#mask-6)"></path>
                </g>
            </g>
            <ellipse id="Oval-4" stroke="#004874" fill="#D0011B" cx="54.4951456" cy="31.5473684" rx="4.58252427" ry="4.58947368"></ellipse>
            <ellipse id="Oval-4-Copy" stroke="#004874" fill="#FFFFFF" cx="52.2038835" cy="41.8736842" rx="4.58252427" ry="4.58947368"></ellipse>
            <ellipse id="Oval-4-Copy-2" stroke="#004874" fill="#5AA800" cx="46.4757282" cy="51.0526316" rx="4.58252427" ry="4.58947368"></ellipse>
        </g>
    </g>
</svg>