<?xml version="1.0" encoding="UTF-8"?>
<svg width="24px" height="18px" viewBox="0 0 24 18" version="1.1" xmlns="http://www.w3.org/2000/svg" xmlns:xlink="http://www.w3.org/1999/xlink">
    <!-- Generator: Sketch 41.2 (35397) - http://www.bohemiancoding.com/sketch -->
    <title>e-mail-icon</title>
    <desc>Created with Sketch.</desc>
    <defs>
        <rect id="path-1" x="0" y="28" width="264" height="232" rx="4"></rect>
        <mask id="mask-2" maskContentUnits="userSpaceOnUse" maskUnits="objectBoundingBox" x="0" y="0" width="264" height="232" fill="white">
            <use xlink:href="#path-1"></use>
        </mask>
    </defs>
    <g id="a" stroke="none" stroke-width="1" fill="none" fill-rule="evenodd">
        <g id="contact" transform="translate(-73.000000, -135.000000)">
            <g transform="translate(46.000000, -2.000000)">
                <use id="Rectangle-4-Copy-8" stroke="#D5DADE" mask="url(#mask-2)" stroke-width="2" fill="#FFFFFF" xlink:href="#path-1"></use>
                <g id="letter" transform="translate(27.000000, 137.000000)" fill="#4C5359">
                    <path d="M22,18 L2,18 C0.8954305,18 0,17.1045695 0,16 L0,2 C0,0.8954305 0.8954305,0 2,0 L22,0 C23.1045695,0 24,0.8954305 24,2 L24,16 C24,17.1045695 23.1045695,18 22,18 L22,18 Z M5.39,2 L12,8.609 L18.61,2 L5.39,2 L5.39,2 Z M22,2 L21.39,2 L12.79,10.6 C12.7677067,10.6408884 12.7408702,10.6791304 12.71,10.714 C12.3129108,11.0939416 11.6870892,11.0939416 11.29,10.714 C11.2591298,10.6791304 11.2322933,10.6408884 11.21,10.6 L2.61,2 L2,2 L2,16 L22,16 L22,2 L22,2 Z"></path>
                </g>
            </g>
        </g>
    </g>
</svg>